<svg width="51" height="50" viewBox="0 0 51 50" fill="none" xmlns="http://www.w3.org/2000/svg">
<path fill-rule="evenodd" clip-rule="evenodd" d="M25.7927 50C39.5999 50 50.7927 38.8071 50.7927 25C50.7927 11.1929 39.5999 0 25.7927 0C11.9856 0 0.792725 11.1929 0.792725 25C0.792725 38.8071 11.9856 50 25.7927 50ZM19.507 37.4464C21.2451 38.1964 23.1022 38.5714 25.0784 38.5714V35.7142C21.8403 35.6904 19.126 34.5596 16.9356 32.3214C14.7451 30.0834 13.6498 27.4048 13.6498 24.2858C13.6498 23.8572 13.6796 23.4286 13.7391 23C13.7987 22.5714 13.8641 22.1428 13.9356 21.7142L20.7927 28.5714H22.2213V24.2858H19.3641V21.4286H22.2213C22.626 21.4286 22.9653 21.2916 23.2391 21.0178C23.5129 20.744 23.6498 20.4048 23.6498 20V17.1428H26.507C27.2927 17.1428 27.9653 16.863 28.5248 16.3036C29.0844 15.744 29.3641 15.0714 29.3641 14.2858V13.7142C31.0784 14.4048 32.5248 15.4346 33.7034 16.8036C34.882 18.1726 35.6975 19.7262 36.1498 21.4642H39.0784C38.4356 18.1786 36.8106 15.4464 34.2034 13.2678C31.5963 11.0892 28.5546 10 25.0784 10C23.1022 10 21.2451 10.375 19.507 11.125C17.7689 11.875 16.257 12.8928 14.9713 14.1786C13.6856 15.4642 12.6677 16.9762 11.9177 18.7142C11.1677 20.4524 10.7927 22.3096 10.7927 24.2858C10.7927 26.262 11.1677 28.119 11.9177 29.8572C12.6677 31.5952 13.6856 33.1072 14.9713 34.3928C16.257 35.6786 17.7689 36.6964 19.507 37.4464ZM33.507 33.2858L38.0784 37.8572L40.0784 35.8572L35.507 31.2858C35.7927 30.7858 36.0308 30.25 36.2213 29.6786C36.4117 29.1072 36.507 28.5 36.507 27.8572C36.507 26.0714 35.882 24.5536 34.632 23.3036C33.382 22.0536 31.8641 21.4286 30.0784 21.4286C28.2927 21.4286 26.7748 22.0536 25.5248 23.3036C24.2748 24.5536 23.6498 26.0714 23.6498 27.8572C23.6498 29.6428 24.2748 31.1608 25.5248 32.4108C26.7748 33.6608 28.2927 34.2858 30.0784 34.2858C30.7213 34.2858 31.3284 34.1904 31.8998 34C32.4713 33.8096 33.007 33.5714 33.507 33.2858ZM32.6141 30.3928C31.9237 31.0834 31.0784 31.4286 30.0784 31.4286C29.0784 31.4286 28.2332 31.0834 27.5427 30.3928C26.8522 29.7024 26.507 28.8572 26.507 27.8572C26.507 26.8572 26.8522 26.012 27.5427 25.3214C28.2332 24.631 29.0784 24.2858 30.0784 24.2858C31.0784 24.2858 31.9237 24.631 32.6141 25.3214C33.3046 26.012 33.6498 26.8572 33.6498 27.8572C33.6498 28.8572 33.3046 29.7024 32.6141 30.3928Z" fill="#EBF7FD"/>
</svg>
