<svg width="50" height="50" viewBox="0 0 50 50" fill="none" xmlns="http://www.w3.org/2000/svg">
<circle cx="25" cy="25" r="24.5" stroke="#EBF7FD"/>
<path d="M24.2857 38.5714C22.3095 38.5714 20.4524 38.1964 18.7143 37.4464C16.9762 36.6964 15.4643 35.6786 14.1786 34.3929C12.8929 33.1071 11.875 31.5952 11.125 29.8571C10.375 28.119 10 26.2619 10 24.2857C10 22.3095 10.375 20.4524 11.125 18.7143C11.875 16.9762 12.8929 15.4643 14.1786 14.1786C15.4643 12.8929 16.9762 11.875 18.7143 11.125C20.4524 10.375 22.3095 10 24.2857 10C27.7619 10 30.8036 11.0893 33.4107 13.2679C36.0179 15.4464 37.6429 18.1786 38.2857 21.4643H35.3571C34.9048 19.7262 34.0893 18.1726 32.9107 16.8036C31.7321 15.4345 30.2857 14.4048 28.5714 13.7143V14.2857C28.5714 15.0714 28.2917 15.744 27.7321 16.3036C27.1726 16.8631 26.5 17.1429 25.7143 17.1429H22.8571V20C22.8571 20.4048 22.7202 20.744 22.4464 21.0179C22.1726 21.2917 21.8333 21.4286 21.4286 21.4286H18.5714V24.2857H21.4286V28.5714H20L13.1429 21.7143C13.0714 22.1429 13.006 22.5714 12.9464 23C12.8869 23.4286 12.8571 23.8571 12.8571 24.2857C12.8571 27.4048 13.9524 30.0833 16.1429 32.3214C18.3333 34.5595 21.0476 35.6905 24.2857 35.7143V38.5714ZM37.2857 37.8571L32.7143 33.2857C32.2143 33.5714 31.6786 33.8095 31.1071 34C30.5357 34.1905 29.9286 34.2857 29.2857 34.2857C27.5 34.2857 25.9821 33.6607 24.7321 32.4107C23.4821 31.1607 22.8571 29.6429 22.8571 27.8571C22.8571 26.0714 23.4821 24.5536 24.7321 23.3036C25.9821 22.0536 27.5 21.4286 29.2857 21.4286C31.0714 21.4286 32.5893 22.0536 33.8393 23.3036C35.0893 24.5536 35.7143 26.0714 35.7143 27.8571C35.7143 28.5 35.619 29.1071 35.4286 29.6786C35.2381 30.25 35 30.7857 34.7143 31.2857L39.2857 35.8571L37.2857 37.8571ZM29.2857 31.4286C30.2857 31.4286 31.131 31.0833 31.8214 30.3929C32.5119 29.7024 32.8571 28.8571 32.8571 27.8571C32.8571 26.8571 32.5119 26.0119 31.8214 25.3214C31.131 24.631 30.2857 24.2857 29.2857 24.2857C28.2857 24.2857 27.4405 24.631 26.75 25.3214C26.0595 26.0119 25.7143 26.8571 25.7143 27.8571C25.7143 28.8571 26.0595 29.7024 26.75 30.3929C27.4405 31.0833 28.2857 31.4286 29.2857 31.4286Z" fill="#EBF7FD"/>
</svg>
