<svg width="51" height="50" viewBox="0 0 51 50" fill="none" xmlns="http://www.w3.org/2000/svg">
<path fill-rule="evenodd" clip-rule="evenodd" d="M25.7927 50C39.5999 50 50.7927 38.8071 50.7927 25C50.7927 11.1929 39.5999 0 25.7927 0C11.9856 0 0.792725 11.1929 0.792725 25C0.792725 38.8071 11.9856 50 25.7927 50ZM9.02979 31.3669V33.6169H15.4584V31.2955C15.4584 30.7003 15.5417 30.1289 15.7084 29.5813C15.875 29.0337 16.125 28.5099 16.4584 28.0099C16.3032 27.9816 16.1438 27.9596 15.9802 27.944C15.8677 27.9332 15.7533 27.9254 15.6369 27.9205C15.4854 27.9143 15.3304 27.9097 15.1722 27.9067C15.0321 27.9041 14.8894 27.9027 14.7441 27.9027C13.0298 27.9027 11.6488 28.2241 10.6012 28.8669C9.55359 29.5099 9.02979 30.3431 9.02979 31.3669ZM17.6012 31.2955V33.6169H34.7441V31.2955C34.7441 30.5337 34.5417 29.8372 34.1369 29.2063C33.7322 28.5753 33.1488 28.0217 32.3869 27.5455C31.625 27.0693 30.7143 26.7122 29.6548 26.4741C28.5953 26.2361 27.4346 26.1169 26.1727 26.1169C24.9346 26.1169 23.7858 26.2361 22.7262 26.4741C21.6667 26.7122 20.756 27.0693 19.9941 27.5455C19.2322 28.0217 18.6429 28.5753 18.2262 29.2063C17.8096 29.8372 17.6012 30.5337 17.6012 31.2955ZM36.8869 31.2955V33.6169H43.3155V31.3669C43.3155 30.3193 42.7917 29.4801 41.7441 28.8491C40.6965 28.2181 39.3155 27.9027 37.6012 27.9027C37.3155 27.9027 37.0357 27.9087 36.7619 27.9205C36.4881 27.9325 36.2203 27.9622 35.9584 28.0099C36.2679 28.4861 36.5 28.9979 36.6548 29.5455C36.8096 30.0931 36.8869 30.6765 36.8869 31.2955ZM31.7441 30.7599H20.6369C20.8512 30.2837 21.5 29.8669 22.5834 29.5099C23.6667 29.1527 24.8631 28.9741 26.1727 28.9741C27.4822 28.9741 28.6786 29.1527 29.7619 29.5099C30.8453 29.8669 31.506 30.2837 31.7441 30.7599ZM12.7262 25.6349C13.2858 26.1943 13.9584 26.4741 14.7441 26.4741C15.5536 26.4741 16.2322 26.1943 16.7798 25.6349C17.3274 25.0753 17.6012 24.4027 17.6012 23.6169C17.6012 22.8075 17.3274 22.1289 16.7798 21.5813C16.2322 21.0337 15.5536 20.7599 14.7441 20.7599C13.9584 20.7599 13.2858 21.0337 12.7262 21.5813C12.1667 22.1289 11.8869 22.8075 11.8869 23.6169C11.8869 24.4027 12.1667 25.0753 12.7262 25.6349ZM35.5834 25.6349C36.1429 26.1943 36.8155 26.4741 37.6012 26.4741C38.4107 26.4741 39.0893 26.1943 39.6369 25.6349C40.1846 25.0753 40.4584 24.4027 40.4584 23.6169C40.4584 22.8075 40.1846 22.1289 39.6369 21.5813C39.0893 21.0337 38.4107 20.7599 37.6012 20.7599C36.8155 20.7599 36.1429 21.0337 35.5834 21.5813C35.0238 22.1289 34.7441 22.8075 34.7441 23.6169C34.7441 24.4027 35.0238 25.0753 35.5834 25.6349ZM23.1369 23.7955C23.9703 24.6289 24.9822 25.0455 26.1727 25.0455C27.3869 25.0455 28.4048 24.6289 29.2262 23.7955C30.0477 22.9622 30.4584 21.9503 30.4584 20.7599C30.4584 19.5455 30.0477 18.5277 29.2262 17.7063C28.4048 16.8849 27.3869 16.4741 26.1727 16.4741C24.9822 16.4741 23.9703 16.8849 23.1369 17.7063C22.3036 18.5277 21.8869 19.5455 21.8869 20.7599C21.8869 21.9503 22.3036 22.9622 23.1369 23.7955ZM27.1905 21.7777C26.9167 22.0515 26.5774 22.1884 26.1727 22.1884C25.7679 22.1884 25.4286 22.0515 25.1548 21.7777C24.881 21.5039 24.7441 21.1646 24.7441 20.7599C24.7441 20.3551 24.881 20.0157 25.1548 19.7419C25.4286 19.4681 25.7679 19.3313 26.1727 19.3313C26.5774 19.3313 26.9167 19.4681 27.1905 19.7419C27.4643 20.0157 27.6012 20.3551 27.6012 20.7599C27.6012 21.1646 27.4643 21.5039 27.1905 21.7777Z" fill="#EBF7FD"/>
</svg>
