<svg width="50" height="50" viewBox="0 0 50 50" fill="none" xmlns="http://www.w3.org/2000/svg">
<circle cx="25" cy="25" r="24.5" stroke="#EBF7FD"/>
<path d="M8.23706 33.617V31.367C8.23706 30.3432 8.76087 29.5098 9.80849 28.867C10.8561 28.2241 12.2371 27.9027 13.9513 27.9027C14.2609 27.9027 14.5585 27.9086 14.8442 27.9205C15.1299 27.9325 15.4037 27.9622 15.6656 28.0098C15.3323 28.5098 15.0823 29.0336 14.9156 29.5813C14.749 30.1289 14.6656 30.7003 14.6656 31.2955V33.617H8.23706ZM16.8085 33.617V31.2955C16.8085 30.5336 17.0168 29.8372 17.4335 29.2063C17.8502 28.5753 18.4394 28.0217 19.2013 27.5455C19.9633 27.0694 20.874 26.7122 21.9335 26.4741C22.993 26.236 24.1418 26.117 25.3799 26.117C26.6418 26.117 27.8025 26.236 28.8621 26.4741C29.9216 26.7122 30.8323 27.0694 31.5942 27.5455C32.3561 28.0217 32.9394 28.5753 33.3442 29.2063C33.749 29.8372 33.9513 30.5336 33.9513 31.2955V33.617H16.8085ZM36.0942 33.617V31.2955C36.0942 30.6765 36.0168 30.0932 35.8621 29.5455C35.7073 28.9979 35.4752 28.486 35.1656 28.0098C35.4275 27.9622 35.6954 27.9325 35.9692 27.9205C36.243 27.9086 36.5228 27.9027 36.8085 27.9027C38.5228 27.9027 39.9037 28.2182 40.9513 28.8491C41.999 29.4801 42.5228 30.3194 42.5228 31.367V33.617H36.0942ZM19.8442 30.7598H30.9513C30.7132 30.2836 30.0525 29.867 28.9692 29.5098C27.8859 29.1527 26.6894 28.9741 25.3799 28.9741C24.0704 28.9741 22.874 29.1527 21.7906 29.5098C20.7073 29.867 20.0585 30.2836 19.8442 30.7598ZM13.9513 26.4741C13.1656 26.4741 12.493 26.1944 11.9335 25.6348C11.374 25.0753 11.0942 24.4027 11.0942 23.617C11.0942 22.8075 11.374 22.1289 11.9335 21.5813C12.493 21.0336 13.1656 20.7598 13.9513 20.7598C14.7609 20.7598 15.4394 21.0336 15.9871 21.5813C16.5347 22.1289 16.8085 22.8075 16.8085 23.617C16.8085 24.4027 16.5347 25.0753 15.9871 25.6348C15.4394 26.1944 14.7609 26.4741 13.9513 26.4741ZM36.8085 26.4741C36.0228 26.4741 35.3502 26.1944 34.7906 25.6348C34.2311 25.0753 33.9513 24.4027 33.9513 23.617C33.9513 22.8075 34.2311 22.1289 34.7906 21.5813C35.3502 21.0336 36.0228 20.7598 36.8085 20.7598C37.618 20.7598 38.2966 21.0336 38.8442 21.5813C39.3918 22.1289 39.6656 22.8075 39.6656 23.617C39.6656 24.4027 39.3918 25.0753 38.8442 25.6348C38.2966 26.1944 37.618 26.4741 36.8085 26.4741ZM25.3799 25.0455C24.1894 25.0455 23.1775 24.6289 22.3442 23.7955C21.5109 22.9622 21.0942 21.9503 21.0942 20.7598C21.0942 19.5455 21.5109 18.5277 22.3442 17.7063C23.1775 16.8848 24.1894 16.4741 25.3799 16.4741C26.5942 16.4741 27.6121 16.8848 28.4335 17.7063C29.2549 18.5277 29.6656 19.5455 29.6656 20.7598C29.6656 21.9503 29.2549 22.9622 28.4335 23.7955C27.6121 24.6289 26.5942 25.0455 25.3799 25.0455ZM25.3799 22.1884C25.7847 22.1884 26.124 22.0515 26.3978 21.7777C26.6716 21.5039 26.8085 21.1646 26.8085 20.7598C26.8085 20.3551 26.6716 20.0158 26.3978 19.742C26.124 19.4682 25.7847 19.3313 25.3799 19.3313C24.9752 19.3313 24.6359 19.4682 24.3621 19.742C24.0883 20.0158 23.9513 20.3551 23.9513 20.7598C23.9513 21.1646 24.0883 21.5039 24.3621 21.7777C24.6359 22.0515 24.9752 22.1884 25.3799 22.1884Z" fill="#EBF7FD"/>
</svg>
