<svg width="164" height="151" viewBox="0 0 164 151" fill="none" xmlns="http://www.w3.org/2000/svg">
<path d="M154.064 151C153.399 151 152.723 150.939 152.058 150.818L7.95342 124.046C3.34817 123.185 0 119.477 0 115.199V100.643H15.1333V111.708L148.843 136.541V14.4604L15.1333 39.2935V50.4193H0V35.7909C0 31.5248 3.33609 27.8041 7.94134 26.9436L152.058 0.183449C154.935 -0.349814 157.92 0.292526 160.229 1.94079C162.622 3.66178 164 6.24326 164 9.03077V141.959C164 144.734 162.622 147.328 160.229 149.049C158.452 150.321 156.288 151 154.064 151Z" fill="#EBF7FD"/>
</svg>
