<svg width="51" height="50" viewBox="0 0 51 50" fill="none" xmlns="http://www.w3.org/2000/svg">
<path fill-rule="evenodd" clip-rule="evenodd" d="M25.7927 50C39.5999 50 50.7927 38.8071 50.7927 25C50.7927 11.1929 39.5999 0 25.7927 0C11.9856 0 0.792725 11.1929 0.792725 25C0.792725 38.8071 11.9856 50 25.7927 50ZM17.0248 37.0892C17.7987 37.506 18.6141 37.7262 19.4713 37.75C19.9237 37.7738 20.3701 37.7322 20.8106 37.625C21.251 37.5178 21.6975 37.3452 22.1498 37.1072L24.1498 36.1072C24.3361 36.014 24.5298 35.9362 24.7312 35.8734C24.8388 35.8398 24.9486 35.8107 25.0606 35.7858C25.382 35.7142 25.7213 35.6786 26.0784 35.6786C26.4356 35.6786 26.7748 35.7142 27.0963 35.7858C27.4177 35.8572 27.7213 35.9642 28.007 36.1072L30.007 37.1072C30.4356 37.3214 30.8641 37.4822 31.2927 37.5892C31.6318 37.6741 31.9709 37.7252 32.31 37.743C32.3995 37.7477 32.489 37.75 32.5784 37.75C33.3403 37.75 34.0903 37.5774 34.8284 37.2322C35.5665 36.887 36.2689 36.381 36.9356 35.7142C38.0308 34.619 38.876 33.2738 39.4713 31.6786C40.0665 30.0834 40.3641 28.369 40.3641 26.5358C40.3641 24.512 39.9891 22.619 39.2391 20.8572C38.4891 19.0952 37.4713 17.5596 36.1856 16.25C34.8998 14.9404 33.3879 13.9048 31.6498 13.1428C29.9117 12.381 28.0546 12 26.0784 12C24.1022 12 22.2451 12.375 20.507 13.125C18.7689 13.875 17.257 14.8928 15.9713 16.1786C14.6856 17.4642 13.6677 18.9762 12.9177 20.7142C12.1677 22.4524 11.7927 24.3096 11.7927 26.2858C11.7927 27.9524 12.0606 29.5774 12.5963 31.1608C13.132 32.744 13.876 34.1072 14.8284 35.25C15.5189 36.0596 16.251 36.6726 17.0248 37.0892ZM19.856 34.8763C19.7502 34.8873 19.6458 34.8928 19.5427 34.8928C19.1141 34.8928 18.7094 34.7916 18.3284 34.5892C17.9475 34.387 17.5546 34.0476 17.1498 33.5714C16.3641 32.6904 15.751 31.6072 15.3106 30.3214C14.8701 29.0358 14.6498 27.7142 14.6498 26.3572C14.6498 23.1666 15.757 20.4524 17.9713 18.2142C20.1856 15.9762 22.8879 14.8572 26.0784 14.8572C29.2689 14.8572 31.9713 15.9702 34.1856 18.1964C36.3998 20.4226 37.507 23.131 37.507 26.3214C37.507 27.6548 37.2927 28.9524 36.8641 30.2142C36.4356 31.4762 35.8403 32.5596 35.0784 33.4642C34.6737 33.9404 34.2689 34.2976 33.8641 34.5358C33.4594 34.7738 33.0308 34.8928 32.5784 34.8928C32.4681 34.8928 32.3578 34.8866 32.2476 34.874C32.1436 34.8621 32.0396 34.8445 31.9356 34.8214C31.7213 34.7738 31.507 34.6904 31.2927 34.5714L29.257 33.5714C28.757 33.3096 28.2332 33.119 27.6856 33C27.1379 32.881 26.5903 32.8214 26.0427 32.8214C25.4951 32.8214 24.9534 32.881 24.4177 33C23.882 33.119 23.3641 33.3096 22.8641 33.5714L20.8641 34.5714C20.6498 34.6904 20.4296 34.7738 20.2034 34.8214C20.086 34.8461 19.9702 34.8644 19.856 34.8763ZM28.0963 28.3036C27.5367 28.863 26.8641 29.1428 26.0784 29.1428C25.2927 29.1428 24.6201 28.863 24.0606 28.3036C23.501 27.744 23.2213 27.0714 23.2213 26.2858C23.2213 25.5 23.501 24.8274 24.0606 24.2678C24.6201 23.7084 25.2927 23.4286 26.0784 23.4286C26.126 23.4286 26.1856 23.4346 26.257 23.4464C26.2913 23.4521 26.3228 23.4565 26.3516 23.4595C26.3828 23.4626 26.4108 23.4642 26.4356 23.4642L28.257 21C27.9237 20.8572 27.5784 20.75 27.2213 20.6786C26.8641 20.6072 26.4832 20.5714 26.0784 20.5714C24.7927 20.5714 23.6379 20.9642 22.6141 21.75C21.5903 22.5358 20.9117 23.5714 20.5784 24.8572H17.6498C17.9832 22.7858 18.9475 21.0774 20.5427 19.7322C22.1379 18.387 23.9832 17.7142 26.0784 17.7142C28.1737 17.7142 30.0129 18.381 31.5963 19.7142C33.1796 21.0476 34.1498 22.762 34.507 24.8572H31.5784C31.4594 24.4524 31.3106 24.0774 31.132 23.7322C30.9534 23.387 30.7451 23.0596 30.507 22.75L28.7213 25.1428C28.7927 25.3334 28.8463 25.5238 28.882 25.7142C28.9177 25.9048 28.9356 26.0952 28.9356 26.2858C28.9356 27.0714 28.6558 27.744 28.0963 28.3036Z" fill="#EBF7FD"/>
</svg>
