<svg width="50" height="50" viewBox="0 0 50 50" fill="none" xmlns="http://www.w3.org/2000/svg">
<circle cx="25" cy="25" r="24.5" stroke="#EBF7FD"/>
<path d="M18.6786 37.75C17.8214 37.7262 17.006 37.506 16.2321 37.0893C15.4583 36.6726 14.7262 36.0595 14.0357 35.25C13.0833 34.1071 12.3393 32.744 11.8036 31.1607C11.2679 29.5774 11 27.9524 11 26.2857C11 24.3095 11.375 22.4524 12.125 20.7143C12.875 18.9762 13.8929 17.4643 15.1786 16.1786C16.4643 14.8929 17.9762 13.875 19.7143 13.125C21.4524 12.375 23.3095 12 25.2857 12C27.2619 12 29.119 12.381 30.8571 13.1429C32.5952 13.9048 34.1071 14.9405 35.3929 16.25C36.6786 17.5595 37.6964 19.0952 38.4464 20.8571C39.1964 22.619 39.5714 24.5119 39.5714 26.5357C39.5714 28.369 39.2738 30.0833 38.6786 31.6786C38.0833 33.2738 37.2381 34.619 36.1429 35.7143C35.4762 36.381 34.7738 36.8869 34.0357 37.2321C33.2976 37.5774 32.5476 37.75 31.7857 37.75C31.3571 37.75 30.9286 37.6964 30.5 37.5893C30.0714 37.4821 29.6429 37.3214 29.2143 37.1071L27.2143 36.1071C26.9286 35.9643 26.625 35.8571 26.3036 35.7857C25.9821 35.7143 25.6429 35.6786 25.2857 35.6786C24.9286 35.6786 24.5893 35.7143 24.2679 35.7857C23.9464 35.8571 23.6429 35.9643 23.3571 36.1071L21.3571 37.1071C20.9048 37.3452 20.4583 37.5179 20.0179 37.625C19.5774 37.7321 19.131 37.7738 18.6786 37.75ZM18.75 34.8929C18.9643 34.8929 19.1845 34.869 19.4107 34.8214C19.6369 34.7738 19.8571 34.6905 20.0714 34.5714L22.0714 33.5714C22.5714 33.3095 23.0893 33.119 23.625 33C24.1607 32.881 24.7024 32.8214 25.25 32.8214C25.7976 32.8214 26.3452 32.881 26.8929 33C27.4405 33.119 27.9643 33.3095 28.4643 33.5714L30.5 34.5714C30.7143 34.6905 30.9286 34.7738 31.1429 34.8214C31.3571 34.869 31.5714 34.8929 31.7857 34.8929C32.2381 34.8929 32.6667 34.7738 33.0714 34.5357C33.4762 34.2976 33.881 33.9405 34.2857 33.4643C35.0476 32.5595 35.6429 31.4762 36.0714 30.2143C36.5 28.9524 36.7143 27.6548 36.7143 26.3214C36.7143 23.131 35.6071 20.4226 33.3929 18.1964C31.1786 15.9702 28.4762 14.8571 25.2857 14.8571C22.0952 14.8571 19.3929 15.9762 17.1786 18.2143C14.9643 20.4524 13.8571 23.1667 13.8571 26.3571C13.8571 27.7143 14.0774 29.0357 14.5179 30.3214C14.9583 31.6071 15.5714 32.6905 16.3571 33.5714C16.7619 34.0476 17.1548 34.3869 17.5357 34.5893C17.9167 34.7917 18.3214 34.8929 18.75 34.8929ZM25.2857 29.1429C26.0714 29.1429 26.744 28.8631 27.3036 28.3036C27.8631 27.744 28.1429 27.0714 28.1429 26.2857C28.1429 26.0952 28.125 25.9048 28.0893 25.7143C28.0536 25.5238 28 25.3333 27.9286 25.1429L29.7143 22.75C29.9524 23.0595 30.1607 23.3869 30.3393 23.7321C30.5179 24.0774 30.6667 24.4524 30.7857 24.8571H33.7143C33.3571 22.7619 32.3869 21.0476 30.8036 19.7143C29.2202 18.381 27.381 17.7143 25.2857 17.7143C23.1905 17.7143 21.3452 18.3869 19.75 19.7321C18.1548 21.0774 17.1905 22.7857 16.8571 24.8571H19.7857C20.119 23.5714 20.7976 22.5357 21.8214 21.75C22.8452 20.9643 24 20.5714 25.2857 20.5714C25.6905 20.5714 26.0714 20.6071 26.4286 20.6786C26.7857 20.75 27.131 20.8571 27.4643 21L25.6429 23.4643C25.5952 23.4643 25.5357 23.4583 25.4643 23.4464C25.3929 23.4345 25.3333 23.4286 25.2857 23.4286C24.5 23.4286 23.8274 23.7083 23.2679 24.2679C22.7083 24.8274 22.4286 25.5 22.4286 26.2857C22.4286 27.0714 22.7083 27.744 23.2679 28.3036C23.8274 28.8631 24.5 29.1429 25.2857 29.1429Z" fill="#EBF7FD"/>
</svg>
